# 3ds Max Wavefront OBJ Exporter v0.97b - (c)2007 guruware
# File Created: 28.10.2014 00:24:43

#
# object Sphere001
#

v  0.0000 0.0000 10.0000
v  -0.0000 4.0674 9.1355
v  -1.6543 3.7157 9.1355
v  -3.0226 2.7216 9.1355
v  -3.8683 1.2569 9.1355
v  -4.0451 -0.4252 9.1355
v  -3.5224 -2.0337 9.1355
v  -2.3907 -3.2906 9.1355
v  -0.8457 -3.9785 9.1355
v  0.8457 -3.9785 9.1355
v  2.3907 -3.2906 9.1355
v  3.5224 -2.0337 9.1355
v  4.0451 -0.4252 9.1355
v  3.8683 1.2569 9.1355
v  3.0226 2.7216 9.1355
v  1.6543 3.7157 9.1355
v  -0.0000 7.4314 6.6913
v  -3.0226 6.7890 6.6913
v  -5.5226 4.9726 6.6913
v  -7.0677 2.2964 6.6913
v  -7.3907 -0.7768 6.6913
v  -6.4358 -3.7157 6.6913
v  -4.3681 -6.0122 6.6913
v  -1.5451 -7.2691 6.6913
v  1.5451 -7.2691 6.6913
v  4.3681 -6.0122 6.6913
v  6.4358 -3.7157 6.6913
v  7.3907 -0.7768 6.6913
v  7.0677 2.2964 6.6913
v  5.5226 4.9726 6.6913
v  3.0226 6.7890 6.6913
v  -0.0000 9.5106 3.0902
v  -3.8683 8.6883 3.0902
v  -7.0677 6.3638 3.0902
v  -9.0451 2.9389 3.0902
v  -9.4585 -0.9941 3.0902
v  -8.2364 -4.7553 3.0902
v  -5.5902 -7.6942 3.0902
v  -1.9774 -9.3027 3.0902
v  1.9774 -9.3027 3.0902
v  5.5902 -7.6942 3.0902
v  8.2364 -4.7553 3.0902
v  9.4585 -0.9941 3.0902
v  9.0451 2.9389 3.0902
v  7.0677 6.3638 3.0902
v  3.8683 8.6883 3.0902
v  -0.0000 9.9452 -1.0453
v  -4.0451 9.0854 -1.0453
v  -7.3907 6.6546 -1.0453
v  -9.4585 3.0732 -1.0453
v  -9.8907 -1.0396 -1.0453
v  -8.6128 -4.9726 -1.0453
v  -5.8457 -8.0459 -1.0453
v  -2.0677 -9.7279 -1.0453
v  2.0677 -9.7279 -1.0453
v  5.8457 -8.0458 -1.0453
v  8.6128 -4.9726 -1.0453
v  9.8907 -1.0396 -1.0453
v  9.4585 3.0732 -1.0453
v  7.3907 6.6547 -1.0453
v  4.0451 9.0854 -1.0453
v  -0.0000 8.6603 -5.0000
v  -3.5224 7.9115 -5.0000
v  -6.4358 5.7948 -5.0000
v  -8.2364 2.6762 -5.0000
v  -8.6128 -0.9052 -5.0000
v  -7.5000 -4.3301 -5.0000
v  -5.0904 -7.0063 -5.0000
v  -1.8006 -8.4710 -5.0000
v  1.8006 -8.4710 -5.0000
v  5.0904 -7.0063 -5.0000
v  7.5000 -4.3301 -5.0000
v  8.6128 -0.9052 -5.0000
v  8.2364 2.6762 -5.0000
v  6.4358 5.7948 -5.0000
v  3.5224 7.9115 -5.0000
v  -0.0000 5.8779 -8.0902
v  -2.3907 5.3697 -8.0902
v  -4.3681 3.9330 -8.0902
v  -5.5902 1.8164 -8.0902
v  -5.8457 -0.6144 -8.0902
v  -5.0904 -2.9389 -8.0902
v  -3.4549 -4.7553 -8.0902
v  -1.2221 -5.7494 -8.0902
v  1.2221 -5.7494 -8.0902
v  3.4549 -4.7553 -8.0902
v  5.0904 -2.9389 -8.0902
v  5.8457 -0.6144 -8.0902
v  5.5902 1.8164 -8.0902
v  4.3681 3.9331 -8.0902
v  2.3907 5.3697 -8.0902
v  0.0000 0.0000 -10.0000
# 92 vertices

vn -0.0000 0.0000 1.0000
vn -0.0000 0.4293 0.9031
vn -0.1746 0.3922 0.9031
vn -0.3191 0.2873 0.9031
vn -0.4083 0.1327 0.9031
vn -0.4270 -0.0449 0.9031
vn -0.3718 -0.2147 0.9031
vn -0.2524 -0.3473 0.9031
vn -0.0893 -0.4199 0.9031
vn 0.0893 -0.4199 0.9031
vn 0.2524 -0.3473 0.9031
vn 0.3718 -0.2147 0.9031
vn 0.4270 -0.0449 0.9031
vn 0.4083 0.1327 0.9031
vn 0.3191 0.2873 0.9031
vn 0.1746 0.3922 0.9031
vn -0.0000 0.7550 0.6557
vn -0.3071 0.6897 0.6557
vn -0.5611 0.5052 0.6557
vn -0.7181 0.2333 0.6557
vn -0.7509 -0.0789 0.6557
vn -0.6539 -0.3775 0.6557
vn -0.4438 -0.6108 0.6557
vn -0.1570 -0.7385 0.6557
vn 0.1570 -0.7385 0.6557
vn 0.4438 -0.6108 0.6557
vn 0.6539 -0.3775 0.6557
vn 0.7509 -0.0789 0.6557
vn 0.7181 0.2333 0.6557
vn 0.5611 0.5052 0.6557
vn 0.3071 0.6897 0.6557
vn -0.0000 0.9536 0.3012
vn -0.3878 0.8711 0.3012
vn -0.7086 0.6381 0.3012
vn -0.9069 0.2947 0.3012
vn -0.9483 -0.0997 0.3012
vn -0.8258 -0.4768 0.3012
vn -0.5605 -0.7714 0.3012
vn -0.1983 -0.9327 0.3012
vn 0.1983 -0.9327 0.3012
vn 0.5605 -0.7714 0.3012
vn 0.8258 -0.4768 0.3012
vn 0.9483 -0.0997 0.3012
vn 0.9069 0.2947 0.3012
vn 0.7086 0.6381 0.3012
vn 0.3878 0.8711 0.3012
vn -0.0000 0.9948 -0.1018
vn -0.4046 0.9088 -0.1018
vn -0.7393 0.6657 -0.1018
vn -0.9461 0.3074 -0.1018
vn -0.9894 -0.1040 -0.1018
vn -0.8615 -0.4974 -0.1018
vn -0.5847 -0.8048 -0.1018
vn -0.2068 -0.9731 -0.1018
vn 0.2068 -0.9731 -0.1018
vn 0.5847 -0.8048 -0.1018
vn 0.8615 -0.4974 -0.1018
vn 0.9894 -0.1040 -0.1018
vn 0.9461 0.3074 -0.1018
vn 0.7393 0.6657 -0.1018
vn 0.4046 0.9088 -0.1018
vn -0.0000 0.8726 -0.4884
vn -0.3549 0.7972 -0.4884
vn -0.6485 0.5839 -0.4884
vn -0.8299 0.2696 -0.4884
vn -0.8678 -0.0912 -0.4884
vn -0.7557 -0.4363 -0.4884
vn -0.5129 -0.7060 -0.4884
vn -0.1814 -0.8535 -0.4884
vn 0.1814 -0.8535 -0.4884
vn 0.5129 -0.7060 -0.4884
vn 0.7557 -0.4363 -0.4884
vn 0.8678 -0.0912 -0.4884
vn 0.8299 0.2697 -0.4884
vn 0.6485 0.5839 -0.4884
vn 0.3549 0.7972 -0.4884
vn -0.0000 0.5680 -0.8230
vn -0.2310 0.5189 -0.8230
vn -0.4221 0.3800 -0.8230
vn -0.5402 0.1755 -0.8230
vn -0.5649 -0.0594 -0.8230
vn -0.4919 -0.2840 -0.8230
vn -0.3338 -0.4595 -0.8230
vn -0.1181 -0.5556 -0.8230
vn 0.1181 -0.5556 -0.8230
vn 0.3338 -0.4595 -0.8230
vn 0.4919 -0.2840 -0.8230
vn 0.5649 -0.0594 -0.8230
vn 0.5402 0.1755 -0.8230
vn 0.4221 0.3800 -0.8230
vn 0.2310 0.5189 -0.8230
vn 0.0000 -0.0000 -1.0000
# 92 vertex normals

vt 0.0000 1.0000 0.0000
vt 0.0000 0.8667 0.0000
vt 0.0667 0.8667 0.0000
vt 0.0667 1.0000 0.0000
vt 0.1333 0.8667 0.0000
vt 0.1333 1.0000 0.0000
vt 0.2000 0.8667 0.0000
vt 0.2000 1.0000 0.0000
vt 0.2667 0.8667 0.0000
vt 0.2667 1.0000 0.0000
vt 0.3333 0.8667 0.0000
vt 0.3333 1.0000 0.0000
vt 0.4000 0.8667 0.0000
vt 0.4000 1.0000 0.0000
vt 0.4667 0.8667 0.0000
vt 0.4667 1.0000 0.0000
vt 0.5333 0.8667 0.0000
vt 0.5333 1.0000 0.0000
vt 0.6000 0.8667 0.0000
vt 0.6000 1.0000 0.0000
vt 0.6667 0.8667 0.0000
vt 0.6667 1.0000 0.0000
vt 0.7333 0.8667 0.0000
vt 0.7333 1.0000 0.0000
vt 0.8000 0.8667 0.0000
vt 0.8000 1.0000 0.0000
vt 0.8667 0.8667 0.0000
vt 0.8667 1.0000 0.0000
vt 0.9333 0.8667 0.0000
vt 0.9333 1.0000 0.0000
vt 1.0000 0.8667 0.0000
vt 0.0000 0.7333 0.0000
vt 0.0667 0.7333 0.0000
vt 0.1333 0.7333 0.0000
vt 0.2000 0.7333 0.0000
vt 0.2667 0.7333 0.0000
vt 0.3333 0.7333 0.0000
vt 0.4000 0.7333 0.0000
vt 0.4667 0.7333 0.0000
vt 0.5333 0.7333 0.0000
vt 0.6000 0.7333 0.0000
vt 0.6667 0.7333 0.0000
vt 0.7333 0.7333 0.0000
vt 0.8000 0.7333 0.0000
vt 0.8667 0.7333 0.0000
vt 0.9333 0.7333 0.0000
vt 1.0000 0.7333 0.0000
vt 0.0000 0.6000 0.0000
vt 0.0667 0.6000 0.0000
vt 0.1333 0.6000 0.0000
vt 0.2000 0.6000 0.0000
vt 0.2667 0.6000 0.0000
vt 0.3333 0.6000 0.0000
vt 0.4000 0.6000 0.0000
vt 0.4667 0.6000 0.0000
vt 0.5333 0.6000 0.0000
vt 0.6000 0.6000 0.0000
vt 0.6667 0.6000 0.0000
vt 0.7333 0.6000 0.0000
vt 0.8000 0.6000 0.0000
vt 0.8667 0.6000 0.0000
vt 0.9333 0.6000 0.0000
vt 1.0000 0.6000 0.0000
vt 0.0000 0.4667 0.0000
vt 0.0667 0.4667 0.0000
vt 0.1333 0.4667 0.0000
vt 0.2000 0.4667 0.0000
vt 0.2667 0.4667 0.0000
vt 0.3333 0.4667 0.0000
vt 0.4000 0.4667 0.0000
vt 0.4667 0.4667 0.0000
vt 0.5333 0.4667 0.0000
vt 0.6000 0.4667 0.0000
vt 0.6667 0.4667 0.0000
vt 0.7333 0.4667 0.0000
vt 0.8000 0.4667 0.0000
vt 0.8667 0.4667 0.0000
vt 0.9333 0.4667 0.0000
vt 1.0000 0.4667 0.0000
vt 0.0000 0.3333 0.0000
vt 0.0667 0.3333 0.0000
vt 0.1333 0.3333 0.0000
vt 0.2000 0.3333 0.0000
vt 0.2667 0.3333 0.0000
vt 0.3333 0.3333 0.0000
vt 0.4000 0.3333 0.0000
vt 0.4667 0.3333 0.0000
vt 0.5333 0.3333 0.0000
vt 0.6000 0.3333 0.0000
vt 0.6667 0.3333 0.0000
vt 0.7333 0.3333 0.0000
vt 0.8000 0.3333 0.0000
vt 0.8667 0.3333 0.0000
vt 0.9333 0.3333 0.0000
vt 1.0000 0.3333 0.0000
vt 0.0000 0.2000 0.0000
vt 0.0667 0.2000 0.0000
vt 0.1333 0.2000 0.0000
vt 0.2000 0.2000 0.0000
vt 0.2667 0.2000 0.0000
vt 0.3333 0.2000 0.0000
vt 0.4000 0.2000 0.0000
vt 0.4667 0.2000 0.0000
vt 0.5333 0.2000 0.0000
vt 0.6000 0.2000 0.0000
vt 0.6667 0.2000 0.0000
vt 0.7333 0.2000 0.0000
vt 0.8000 0.2000 0.0000
vt 0.8667 0.2000 0.0000
vt 0.9333 0.2000 0.0000
vt 1.0000 0.2000 0.0000
vt 0.0000 0.0667 0.0000
vt 0.0667 0.0667 0.0000
vt 0.1333 0.0667 0.0000
vt 0.2000 0.0667 0.0000
vt 0.2667 0.0667 0.0000
vt 0.3333 0.0667 0.0000
vt 0.4000 0.0667 0.0000
vt 0.4667 0.0667 0.0000
vt 0.5333 0.0667 0.0000
vt 0.6000 0.0667 0.0000
vt 0.6667 0.0667 0.0000
vt 0.7333 0.0667 0.0000
vt 0.8000 0.0667 0.0000
vt 0.8667 0.0667 0.0000
vt 0.9333 0.0667 0.0000
# 126 texture coords

g Sphere001
s 1
f 1/1/1 2/2/2 3/3/3 
f 1/4/1 3/3/3 4/5/4 
f 1/6/1 4/5/4 5/7/5 
f 1/8/1 5/7/5 6/9/6 
f 1/10/1 6/9/6 7/11/7 
f 1/12/1 7/11/7 8/13/8 
f 1/14/1 8/13/8 9/15/9 
f 1/16/1 9/15/9 10/17/10 
f 1/18/1 10/17/10 11/19/11 
f 1/20/1 11/19/11 12/21/12 
f 1/22/1 12/21/12 13/23/13 
f 1/24/1 13/23/13 14/25/14 
f 1/26/1 14/25/14 15/27/15 
f 1/28/1 15/27/15 16/29/16 
f 1/30/1 16/29/16 2/31/2 
f 2/2/2 17/32/17 18/33/18 
f 2/2/2 18/33/18 3/3/3 
f 3/3/3 18/33/18 19/34/19 
f 3/3/3 19/34/19 4/5/4 
f 4/5/4 19/34/19 20/35/20 
f 4/5/4 20/35/20 5/7/5 
f 5/7/5 20/35/20 21/36/21 
f 5/7/5 21/36/21 6/9/6 
f 6/9/6 21/36/21 22/37/22 
f 6/9/6 22/37/22 7/11/7 
f 7/11/7 22/37/22 23/38/23 
f 7/11/7 23/38/23 8/13/8 
f 8/13/8 23/38/23 24/39/24 
f 8/13/8 24/39/24 9/15/9 
f 9/15/9 24/39/24 25/40/25 
f 9/15/9 25/40/25 10/17/10 
f 10/17/10 25/40/25 26/41/26 
f 10/17/10 26/41/26 11/19/11 
f 11/19/11 26/41/26 27/42/27 
f 11/19/11 27/42/27 12/21/12 
f 12/21/12 27/42/27 28/43/28 
f 12/21/12 28/43/28 13/23/13 
f 13/23/13 28/43/28 29/44/29 
f 13/23/13 29/44/29 14/25/14 
f 14/25/14 29/44/29 30/45/30 
f 14/25/14 30/45/30 15/27/15 
f 15/27/15 30/45/30 31/46/31 
f 15/27/15 31/46/31 16/29/16 
f 16/29/16 31/46/31 17/47/17 
f 16/29/16 17/47/17 2/31/2 
f 17/32/17 32/48/32 33/49/33 
f 17/32/17 33/49/33 18/33/18 
f 18/33/18 33/49/33 34/50/34 
f 18/33/18 34/50/34 19/34/19 
f 19/34/19 34/50/34 35/51/35 
f 19/34/19 35/51/35 20/35/20 
f 20/35/20 35/51/35 36/52/36 
f 20/35/20 36/52/36 21/36/21 
f 21/36/21 36/52/36 37/53/37 
f 21/36/21 37/53/37 22/37/22 
f 22/37/22 37/53/37 38/54/38 
f 22/37/22 38/54/38 23/38/23 
f 23/38/23 38/54/38 39/55/39 
f 23/38/23 39/55/39 24/39/24 
f 24/39/24 39/55/39 40/56/40 
f 24/39/24 40/56/40 25/40/25 
f 25/40/25 40/56/40 41/57/41 
f 25/40/25 41/57/41 26/41/26 
f 26/41/26 41/57/41 42/58/42 
f 26/41/26 42/58/42 27/42/27 
f 27/42/27 42/58/42 43/59/43 
f 27/42/27 43/59/43 28/43/28 
f 28/43/28 43/59/43 44/60/44 
f 28/43/28 44/60/44 29/44/29 
f 29/44/29 44/60/44 45/61/45 
f 29/44/29 45/61/45 30/45/30 
f 30/45/30 45/61/45 46/62/46 
f 30/45/30 46/62/46 31/46/31 
f 31/46/31 46/62/46 32/63/32 
f 31/46/31 32/63/32 17/47/17 
f 32/48/32 47/64/47 48/65/48 
f 32/48/32 48/65/48 33/49/33 
f 33/49/33 48/65/48 49/66/49 
f 33/49/33 49/66/49 34/50/34 
f 34/50/34 49/66/49 50/67/50 
f 34/50/34 50/67/50 35/51/35 
f 35/51/35 50/67/50 51/68/51 
f 35/51/35 51/68/51 36/52/36 
f 36/52/36 51/68/51 52/69/52 
f 36/52/36 52/69/52 37/53/37 
f 37/53/37 52/69/52 53/70/53 
f 37/53/37 53/70/53 38/54/38 
f 38/54/38 53/70/53 54/71/54 
f 38/54/38 54/71/54 39/55/39 
f 39/55/39 54/71/54 55/72/55 
f 39/55/39 55/72/55 40/56/40 
f 40/56/40 55/72/55 56/73/56 
f 40/56/40 56/73/56 41/57/41 
f 41/57/41 56/73/56 57/74/57 
f 41/57/41 57/74/57 42/58/42 
f 42/58/42 57/74/57 58/75/58 
f 42/58/42 58/75/58 43/59/43 
f 43/59/43 58/75/58 59/76/59 
f 43/59/43 59/76/59 44/60/44 
f 44/60/44 59/76/59 60/77/60 
f 44/60/44 60/77/60 45/61/45 
f 45/61/45 60/77/60 61/78/61 
f 45/61/45 61/78/61 46/62/46 
f 46/62/46 61/78/61 47/79/47 
f 46/62/46 47/79/47 32/63/32 
f 47/64/47 62/80/62 63/81/63 
f 47/64/47 63/81/63 48/65/48 
f 48/65/48 63/81/63 64/82/64 
f 48/65/48 64/82/64 49/66/49 
f 49/66/49 64/82/64 65/83/65 
f 49/66/49 65/83/65 50/67/50 
f 50/67/50 65/83/65 66/84/66 
f 50/67/50 66/84/66 51/68/51 
f 51/68/51 66/84/66 67/85/67 
f 51/68/51 67/85/67 52/69/52 
f 52/69/52 67/85/67 68/86/68 
f 52/69/52 68/86/68 53/70/53 
f 53/70/53 68/86/68 69/87/69 
f 53/70/53 69/87/69 54/71/54 
f 54/71/54 69/87/69 70/88/70 
f 54/71/54 70/88/70 55/72/55 
f 55/72/55 70/88/70 71/89/71 
f 55/72/55 71/89/71 56/73/56 
f 56/73/56 71/89/71 72/90/72 
f 56/73/56 72/90/72 57/74/57 
f 57/74/57 72/90/72 73/91/73 
f 57/74/57 73/91/73 58/75/58 
f 58/75/58 73/91/73 74/92/74 
f 58/75/58 74/92/74 59/76/59 
f 59/76/59 74/92/74 75/93/75 
f 59/76/59 75/93/75 60/77/60 
f 60/77/60 75/93/75 76/94/76 
f 60/77/60 76/94/76 61/78/61 
f 61/78/61 76/94/76 62/95/62 
f 61/78/61 62/95/62 47/79/47 
f 62/80/62 77/96/77 78/97/78 
f 62/80/62 78/97/78 63/81/63 
f 63/81/63 78/97/78 79/98/79 
f 63/81/63 79/98/79 64/82/64 
f 64/82/64 79/98/79 80/99/80 
f 64/82/64 80/99/80 65/83/65 
f 65/83/65 80/99/80 81/100/81 
f 65/83/65 81/100/81 66/84/66 
f 66/84/66 81/100/81 82/101/82 
f 66/84/66 82/101/82 67/85/67 
f 67/85/67 82/101/82 83/102/83 
f 67/85/67 83/102/83 68/86/68 
f 68/86/68 83/102/83 84/103/84 
f 68/86/68 84/103/84 69/87/69 
f 69/87/69 84/103/84 85/104/85 
f 69/87/69 85/104/85 70/88/70 
f 70/88/70 85/104/85 86/105/86 
f 70/88/70 86/105/86 71/89/71 
f 71/89/71 86/105/86 87/106/87 
f 71/89/71 87/106/87 72/90/72 
f 72/90/72 87/106/87 88/107/88 
f 72/90/72 88/107/88 73/91/73 
f 73/91/73 88/107/88 89/108/89 
f 73/91/73 89/108/89 74/92/74 
f 74/92/74 89/108/89 90/109/90 
f 74/92/74 90/109/90 75/93/75 
f 75/93/75 90/109/90 91/110/91 
f 75/93/75 91/110/91 76/94/76 
f 76/94/76 91/110/91 77/111/77 
f 76/94/76 77/111/77 62/95/62 
f 92/112/92 78/97/78 77/96/77 
f 92/113/92 79/98/79 78/97/78 
f 92/114/92 80/99/80 79/98/79 
f 92/115/92 81/100/81 80/99/80 
f 92/116/92 82/101/82 81/100/81 
f 92/117/92 83/102/83 82/101/82 
f 92/118/92 84/103/84 83/102/83 
f 92/119/92 85/104/85 84/103/84 
f 92/120/92 86/105/86 85/104/85 
f 92/121/92 87/106/87 86/105/86 
f 92/122/92 88/107/88 87/106/87 
f 92/123/92 89/108/89 88/107/88 
f 92/124/92 90/109/90 89/108/89 
f 92/125/92 91/110/91 90/109/90 
f 92/126/92 77/111/77 91/110/91 
# 180 faces

